<?xml version="1.0" encoding="UTF-8"?>
<svg xmlns="http://www.w3.org/2000/svg" xmlns:xlink="http://www.w3.org/1999/xlink" width="50px" height="52px" viewBox="0 0 50 51" version="1.1">
<g id="surface1">
<path style=" stroke:none;fill-rule:nonzero;fill:rgb(0%,0%,0%);fill-opacity:1;" d="M 13.039062 1.03125 C 11.253906 1.820312 10.230469 2.515625 8.007812 4.433594 C 5.589844 6.519531 4.859375 7.308594 2.613281 10.472656 L 0 14.09375 L 0 22.289062 L 41.40625 22.289062 L 42.429688 23.320312 C 43.382812 24.277344 43.457031 24.421875 43.457031 25.714844 L 43.457031 27.082031 L 50.046875 27.082031 L 50.046875 16.800781 L 47.679688 14.980469 L 45.289062 13.179688 L 12.914062 13.179688 L 12.988281 12.414062 C 13.0625 11.765625 13.328125 11.503906 15.136719 10.402344 L 17.210938 9.105469 L 32.859375 9.105469 L 33.8125 10.066406 L 34.765625 11.023438 L 42.40625 11.023438 C 48.390625 11.023438 50.046875 10.953125 50.046875 10.710938 C 50.046875 10.113281 42.871094 3.425781 40.355469 1.703125 L 37.867188 0 L 26.5625 0.0234375 L 15.257812 0.0234375 Z M 13.039062 1.03125 "/>
<path style=" stroke:none;fill-rule:nonzero;fill:rgb(0%,0%,0%);fill-opacity:1;" d="M 0 26.601562 C 0 28.566406 0.121094 29.957031 0.414062 30.941406 C 0.855469 32.523438 1 32.664062 5.347656 35.925781 L 7.617188 37.625 L 40.039062 37.625 L 40.039062 38.320312 C 40.039062 38.945312 39.796875 39.183594 37.867188 40.359375 L 35.71875 41.699219 L 20.117188 41.699219 L 18.210938 39.785156 L 2.320312 39.785156 L 6.226562 43.617188 C 8.886719 46.230469 10.960938 48.027344 12.742188 49.25 L 15.332031 51.046875 L 37.0625 51.046875 L 39.625 49.898438 C 41.820312 48.914062 42.578125 48.386719 44.996094 46.300781 C 46.53125 44.984375 48.289062 43.1875 48.925781 42.324219 L 50.046875 40.765625 L 50.046875 28.519531 L 11.328125 28.519531 L 10.425781 27.609375 C 9.570312 26.769531 9.523438 26.601562 9.523438 25.210938 L 9.523438 23.726562 L 0 23.726562 Z M 0 26.601562 "/>
</g>
</svg>
